<svg width="42" height="42" viewBox="0 0 42 42" fill="none" xmlns="http://www.w3.org/2000/svg">
<path d="M25.2701 12.6875C24.9376 12.6875 24.6051 12.565 24.3426 12.3025L20.7901 8.75001L17.2376 12.3025C16.7301 12.81 15.8901 12.81 15.3826 12.3025C14.8751 11.795 14.8751 10.955 15.3826 10.4475L19.8626 5.96751C20.3701 5.46001 21.2101 5.46001 21.7176 5.96751L26.1976 10.4475C26.7051 10.955 26.7051 11.795 26.1976 12.3025C25.9351 12.565 25.6026 12.6875 25.2701 12.6875Z" fill="#5776D4"/>
<path d="M20.79 26.1275C20.0725 26.1275 19.4775 25.5325 19.4775 24.815V7.01749C19.4775 6.29999 20.0725 5.70499 20.79 5.70499C21.5075 5.70499 22.1025 6.29999 22.1025 7.01749V24.815C22.1025 25.55 21.5075 26.1275 20.79 26.1275Z" fill="#5776D4"/>
<path d="M21 36.3125C11.9875 36.3125 5.6875 30.0125 5.6875 21C5.6875 20.2825 6.2825 19.6875 7 19.6875C7.7175 19.6875 8.3125 20.2825 8.3125 21C8.3125 28.4725 13.5275 33.6875 21 33.6875C28.4725 33.6875 33.6875 28.4725 33.6875 21C33.6875 20.2825 34.2825 19.6875 35 19.6875C35.7175 19.6875 36.3125 20.2825 36.3125 21C36.3125 30.0125 30.0125 36.3125 21 36.3125Z" fill="#5776D4"/>
</svg>
