<svg width="15" height="15" viewBox="0 0 15 15" fill="none" xmlns="http://www.w3.org/2000/svg">
<path d="M9.53731 13.9062H5.4623C2.39355 13.9062 1.08105 12.5937 1.08105 9.52499V9.44374C1.08105 6.66874 2.1748 5.33124 4.6248 5.09999C4.8748 5.08124 5.1123 5.26874 5.1373 5.52499C5.1623 5.78124 4.9748 6.01249 4.7123 6.03749C2.7498 6.21874 2.01855 7.14374 2.01855 9.44999V9.53124C2.01855 12.075 2.91855 12.975 5.4623 12.975H9.53731C12.0811 12.975 12.9811 12.075 12.9811 9.53124V9.44999C12.9811 7.13124 12.2373 6.20624 10.2373 6.03749C9.98105 6.01249 9.7873 5.78749 9.8123 5.53124C9.8373 5.27499 10.0561 5.08124 10.3186 5.10624C12.8061 5.31874 13.9186 6.66249 13.9186 9.45624V9.53749C13.9186 12.5937 12.6061 13.9062 9.53731 13.9062Z" fill="#2A3E63"/>
<path d="M7.5 9.76875C7.24375 9.76875 7.03125 9.55625 7.03125 9.3V1.25C7.03125 0.99375 7.24375 0.78125 7.5 0.78125C7.75625 0.78125 7.96875 0.99375 7.96875 1.25V9.3C7.96875 9.5625 7.75625 9.76875 7.5 9.76875Z" fill="#2A3E63"/>
<path d="M7.4999 10.4688C7.38115 10.4688 7.2624 10.425 7.16865 10.3313L5.0749 8.23752C4.89365 8.05627 4.89365 7.75627 5.0749 7.57502C5.25615 7.39377 5.55615 7.39377 5.7374 7.57502L7.4999 9.33752L9.2624 7.57502C9.44365 7.39377 9.74365 7.39377 9.9249 7.57502C10.1062 7.75627 10.1062 8.05627 9.9249 8.23752L7.83115 10.3313C7.7374 10.425 7.61865 10.4688 7.4999 10.4688Z" fill="#2A3E63"/>
</svg>
