<svg width="30" height="30" viewBox="0 0 30 30" fill="none" xmlns="http://www.w3.org/2000/svg">
<path d="M27.8123 10.925L27.8123 19.075C27.8123 25.2125 25.1873 27.8375 19.0498 27.8375H18.8873C13.3373 27.8375 10.6623 25.65 10.1998 20.75C10.1623 20.25 10.5373 19.775 11.0498 19.725C11.5623 19.675 12.0248 20.05 12.0748 20.575C12.4373 24.5 14.2873 25.9625 18.8998 25.9625H19.0623C24.1498 25.9625 25.9498 24.1625 25.9498 19.075V10.925C25.9498 5.8375 24.1498 4.0375 19.0623 4.0375H18.8998C14.2623 4.0375 12.4123 5.525 12.0748 9.525C12.0248 10.0375 11.5748 10.425 11.0623 10.375C10.5498 10.325 10.1623 9.8875 10.2123 9.3625C10.6373 4.3875 13.3248 2.1625 18.9123 2.1625H19.0748C25.1873 2.1625 27.8123 4.7875 27.8123 10.925Z" fill="#2A3E63"/>
<path d="M19.5375 15C19.5375 15.5125 19.1125 15.9375 18.6 15.9375L2.5 15.9375C1.9875 15.9375 1.5625 15.5125 1.5625 15C1.5625 14.4875 1.9875 14.0625 2.5 14.0625L18.6 14.0625C19.125 14.0625 19.5375 14.4875 19.5375 15Z" fill="#2A3E63"/>
<path d="M20.9373 15C20.9373 15.2375 20.8498 15.475 20.6623 15.6625L16.4748 19.85C16.1123 20.2125 15.5123 20.2125 15.1498 19.85C14.7873 19.4875 14.7873 18.8875 15.1498 18.525L18.6748 15L15.1498 11.475C14.7873 11.1125 14.7873 10.5125 15.1498 10.15C15.5123 9.7875 16.1123 9.7875 16.4748 10.15L20.6623 14.3375C20.8498 14.525 20.9373 14.7625 20.9373 15Z" fill="#2A3E63"/>
</svg>
