<svg width="19" height="20" viewBox="0 0 19 20" fill="none" xmlns="http://www.w3.org/2000/svg">
<path d="M9.08583 13.125C7.51857 13.125 6.24658 11.725 6.24658 10C6.24658 8.275 7.51857 6.875 9.08583 6.875C10.6531 6.875 11.9251 8.275 11.9251 10C11.9251 11.725 10.6531 13.125 9.08583 13.125ZM9.08583 8.125C8.14699 8.125 7.38228 8.96667 7.38228 10C7.38228 11.0333 8.14699 11.875 9.08583 11.875C10.0247 11.875 10.7894 11.0333 10.7894 10C10.7894 8.96667 10.0247 8.125 9.08583 8.125Z" fill="#292D32"/>
<path d="M11.5159 18.4917C11.3569 18.4917 11.1979 18.4667 11.0389 18.425C10.5694 18.2833 10.1757 17.9583 9.92589 17.5L9.83503 17.3333C9.38832 16.4833 8.77504 16.4833 8.32834 17.3333L8.24505 17.4917C7.9952 17.9583 7.60149 18.2917 7.13207 18.425C6.65507 18.5667 6.16294 18.4917 5.74651 18.2167L4.44424 17.3917C3.98239 17.1 3.64925 16.625 3.5054 16.05C3.36911 15.475 3.43726 14.8833 3.70225 14.375C3.92182 13.95 3.98239 13.5667 3.85368 13.325C3.72497 13.0833 3.3994 12.9417 2.95269 12.9417C1.84728 12.9417 0.946289 11.95 0.946289 10.7333V9.26668C0.946289 8.05001 1.84728 7.05835 2.95269 7.05835C3.3994 7.05835 3.72497 6.91668 3.85368 6.67502C3.98239 6.43335 3.92939 6.05001 3.70225 5.62501C3.43726 5.11668 3.36911 4.51668 3.5054 3.95001C3.64168 3.37501 3.97482 2.90001 4.44424 2.60835L5.75408 1.78335C6.60964 1.22501 7.73777 1.55001 8.25262 2.50835L8.34348 2.67501C8.79019 3.52501 9.40346 3.52501 9.85017 2.67501L9.93346 2.51668C10.4483 1.55001 11.5764 1.22501 12.4396 1.79168L13.7418 2.61668C14.2037 2.90835 14.5368 3.38335 14.6807 3.95835C14.817 4.53335 14.7488 5.12502 14.4838 5.63335C14.2643 6.05835 14.2037 6.44168 14.3324 6.68335C14.4611 6.92502 14.7867 7.06668 15.2334 7.06668C16.3388 7.06668 17.2398 8.05835 17.2398 9.27501V10.7417C17.2398 11.9583 16.3388 12.95 15.2334 12.95C14.7867 12.95 14.4611 13.0917 14.3324 13.3333C14.2037 13.575 14.2567 13.9583 14.4838 14.3833C14.7488 14.8917 14.8245 15.4917 14.6807 16.0583C14.5444 16.6333 14.2113 17.1083 13.7418 17.4L12.432 18.225C12.1443 18.4 11.8339 18.4917 11.5159 18.4917ZM9.08547 15.4083C9.75932 15.4083 10.3877 15.875 10.8193 16.7L10.9026 16.8583C10.9934 17.0333 11.1449 17.1583 11.3266 17.2083C11.5083 17.2583 11.69 17.2333 11.8414 17.1333L13.1513 16.3C13.3481 16.175 13.4996 15.9667 13.5601 15.7167C13.6207 15.4667 13.5904 15.2083 13.4768 14.9917C13.0453 14.175 12.9923 13.3333 13.3254 12.6917C13.6586 12.05 14.3475 11.6833 15.2107 11.6833C15.6952 11.6833 16.0814 11.2583 16.0814 10.725V9.25835C16.0814 8.73335 15.6952 8.30001 15.2107 8.30001C14.3475 8.30001 13.6586 7.93335 13.3254 7.29168C12.9923 6.65001 13.0453 5.80835 13.4768 4.99168C13.5904 4.77501 13.6207 4.51668 13.5601 4.26668C13.4996 4.01668 13.3557 3.81668 13.1588 3.68335L11.849 2.85835C11.5234 2.64168 11.0919 2.76668 10.895 3.13335L10.8117 3.29168C10.3802 4.11668 9.75175 4.58335 9.0779 4.58335C8.40405 4.58335 7.77563 4.11668 7.34406 3.29168L7.26078 3.12501C7.07149 2.77501 6.6475 2.65001 6.32193 2.85835L5.01209 3.69168C4.81524 3.81668 4.66381 4.02501 4.60324 4.27501C4.54267 4.52501 4.57296 4.78335 4.68653 5.00001C5.11809 5.81668 5.17109 6.65835 4.83795 7.30002C4.50481 7.94168 3.81582 8.30835 2.95269 8.30835C2.46813 8.30835 2.08199 8.73335 2.08199 9.26668V10.7333C2.08199 11.2583 2.46813 11.6917 2.95269 11.6917C3.81582 11.6917 4.50481 12.0583 4.83795 12.7C5.17109 13.3417 5.11809 14.1833 4.68653 15C4.57296 15.2167 4.54267 15.475 4.60324 15.725C4.66381 15.975 4.80767 16.175 5.00452 16.3083L6.31436 17.1333C6.47336 17.2417 6.66264 17.2667 6.83678 17.2167C7.0185 17.1667 7.16992 17.0333 7.26835 16.8583L7.35163 16.7C7.7832 15.8833 8.41162 15.4083 9.08547 15.4083Z" fill="#292D32"/>
</svg>
