<svg width="19" height="20" viewBox="0 0 19 20" fill="none" xmlns="http://www.w3.org/2000/svg">
<path d="M15.8996 5.60833C15.8845 5.60833 15.8618 5.60833 15.8391 5.60833C11.8338 5.16667 7.83617 5 3.87636 5.44167L2.33181 5.60833C2.01382 5.64167 1.73368 5.39167 1.70339 5.04167C1.67311 4.69167 1.90025 4.39167 2.21067 4.35833L3.75522 4.19167C7.78317 3.74167 11.8641 3.91667 15.9526 4.35833C16.2631 4.39167 16.4902 4.7 16.4599 5.04167C16.4372 5.36667 16.1873 5.60833 15.8996 5.60833Z" fill="#B25051"/>
<path d="M6.4356 4.76669C6.40531 4.76669 6.37503 4.76669 6.33717 4.75835C6.03432 4.70002 5.82232 4.37502 5.87532 4.04169L6.04189 2.95002C6.16303 2.15002 6.3296 1.04169 8.09372 1.04169H10.0774C11.8491 1.04169 12.0157 2.19169 12.1292 2.95835L12.2958 4.04169C12.3488 4.38335 12.1368 4.70835 11.834 4.75835C11.5235 4.81669 11.2283 4.58335 11.1828 4.25002L11.0163 3.16669C10.9103 2.44169 10.8875 2.30002 10.085 2.30002H8.10129C7.29873 2.30002 7.28359 2.41669 7.17002 3.15835L6.99588 4.24169C6.95045 4.55002 6.70817 4.76669 6.4356 4.76669Z" fill="#B25051"/>
<path d="M11.5162 18.9583H6.65537C4.01297 18.9583 3.90698 17.35 3.82369 16.05L3.33155 7.65833C3.30884 7.31667 3.55112 7.01667 3.86155 6.99167C4.17954 6.975 4.44454 7.23334 4.46725 7.575L4.95939 15.9667C5.04267 17.2333 5.07296 17.7083 6.65537 17.7083H11.5162C13.1061 17.7083 13.1364 17.2333 13.2121 15.9667L13.7043 7.575C13.727 7.23334 13.9996 6.975 14.31 6.99167C14.6204 7.01667 14.8627 7.30833 14.84 7.65833L14.3478 16.05C14.2646 17.35 14.1586 18.9583 11.5162 18.9583Z" fill="#B25051"/>
<path d="M10.3425 14.375H7.82127C7.51084 14.375 7.25342 14.0917 7.25342 13.75C7.25342 13.4083 7.51084 13.125 7.82127 13.125H10.3425C10.6529 13.125 10.9104 13.4083 10.9104 13.75C10.9104 14.0917 10.6529 14.375 10.3425 14.375Z" fill="#B25051"/>
<path d="M10.9785 11.0417H7.19285C6.88243 11.0417 6.625 10.7584 6.625 10.4167C6.625 10.075 6.88243 9.79169 7.19285 9.79169H10.9785C11.2889 9.79169 11.5464 10.075 11.5464 10.4167C11.5464 10.7584 11.2889 11.0417 10.9785 11.0417Z" fill="#B25051"/>
</svg>
